<svg xmlns="http://www.w3.org/2000/svg" width="729.633" height="251.517" viewBox="0 0 684.031 235.797">
  <path d="M116.76 58.38C116.76 26.137 90.623 0 58.38 0S0 26.137 0 58.38s26.137 58.38 58.38 58.38 58.38-26.137 58.38-58.38z" fill="#268bd2"/>
  <path d="M183.13 58.38c0-10.189-8.26-18.449-18.45-18.449-10.188 0-18.448 8.26-18.448 18.45 0 10.188 8.26 18.448 18.449 18.448 10.189 0 18.448-8.26 18.448-18.449z" fill="#657b83"/>
  <path d="M159.366 235.797h10.63v-106.3h-10.63v106.3z" fill="#073642"/>
  <path d="M329.361 58.38c0-32.243-26.137-58.38-58.38-58.38s-58.38 26.137-58.38 58.38 26.137 58.38 58.38 58.38 58.38-26.137 58.38-58.38z" fill="#268bd2"/>
  <path d="M395.73 58.38c0-10.189-8.26-18.449-18.448-18.449-10.19 0-18.45 8.26-18.45 18.45 0 10.188 8.26 18.448 18.45 18.448 10.189 0 18.449-8.26 18.449-18.449z" fill="#657b83"/>
  <path d="M366.652 235.797h21.26v-106.3h-21.26v106.3z" fill="#073642"/>
  <path d="M541.962 58.38c0-32.243-26.137-58.38-58.38-58.38s-58.38 26.137-58.38 58.38 26.137 58.38 58.38 58.38 58.38-26.137 58.38-58.38z" fill="#268bd2"/>
  <path d="M608.332 58.38c0-10.189-8.26-18.449-18.45-18.449-10.188 0-18.448 8.26-18.448 18.45 0 10.188 8.26 18.448 18.449 18.448 10.189 0 18.449-8.26 18.449-18.449z" fill="#657b83"/>
  <path d="M573.938 235.797h31.89v-106.3h-31.89v106.3z" fill="#073642"/>
  <path d="M662.522 58.38a1.772 1.772 0 1 0-3.544 0 1.772 1.772 0 0 0 3.544 0zm10.63 0a1.772 1.772 0 1 0-3.544 0 1.772 1.772 0 0 0 3.544 0zm10.63 0a1.772 1.772 0 1 0-3.544 0 1.772 1.772 0 0 0 3.544 0z" fill="#657b83" stroke="#657b83" stroke-width=".499" stroke-miterlimit="10"/>
  <path d="M117.01 58.38h20.455" fill="none" stroke="#657b83" stroke-width="1.993" stroke-miterlimit="10"/>
  <path d="M145.983 58.38c-2.524-.473-6.625-1.893-9.465-3.55v7.1c2.84-1.657 6.94-3.077 9.465-3.55" fill="#657b83"/>
  <path d="M183.379 58.38h20.455" fill="none" stroke="#657b83" stroke-width="1.993" stroke-miterlimit="10"/>
  <path d="M212.352 58.38c-2.524-.473-6.625-1.893-9.465-3.55v7.1c2.84-1.657 6.941-3.077 9.465-3.55" fill="#657b83"/>
  <path d="M164.68 77.078v43.651" fill="none" stroke="#657b83" stroke-width="1.993" stroke-miterlimit="10"/>
  <path d="M164.68 129.247c.474-2.524 1.894-6.625 3.55-9.464h-7.099c1.657 2.839 3.076 6.94 3.55 9.464" fill="#657b83"/>
  <path d="M329.61 58.38h20.456" fill="none" stroke="#657b83" stroke-width="1.993" stroke-miterlimit="10"/>
  <path d="M358.584 58.38c-2.524-.473-6.625-1.893-9.465-3.55v7.1c2.84-1.657 6.94-3.077 9.465-3.55" fill="#657b83"/>
  <path d="M395.98 58.38h20.455" fill="none" stroke="#657b83" stroke-width="1.993" stroke-miterlimit="10"/>
  <path d="M424.953 58.38c-2.524-.473-6.625-1.893-9.464-3.55v7.1c2.839-1.657 6.94-3.077 9.464-3.55" fill="#657b83"/>
  <path d="M377.282 77.078v43.651" fill="none" stroke="#657b83" stroke-width="1.993" stroke-miterlimit="10"/>
  <path d="M377.282 129.247c.473-2.524 1.893-6.625 3.549-9.464h-7.098c1.656 2.839 3.076 6.94 3.549 9.464" fill="#657b83"/>
  <path d="M608.58 58.38h25.935" fill="none" stroke="#657b83" stroke-width="1.993" stroke-miterlimit="10"/>
  <path d="M643.033 58.38c-2.524-.473-6.625-1.893-9.464-3.55v7.1c2.839-1.657 6.94-3.077 9.464-3.55" fill="#657b83"/>
  <path d="M542.212 58.38h20.455" fill="none" stroke="#657b83" stroke-width="1.993" stroke-miterlimit="10"/>
  <path d="M571.185 58.38c-2.524-.473-6.625-1.893-9.465-3.55v7.1c2.84-1.657 6.941-3.077 9.465-3.55" fill="#657b83"/>
  <path d="M589.883 77.078v43.651" fill="none" stroke="#657b83" stroke-width="1.993" stroke-miterlimit="10"/>
  <path d="M589.883 129.247c.473-2.524 1.893-6.625 3.549-9.464h-7.098c1.656 2.839 3.076 6.94 3.549 9.464" fill="#657b83"/>
</svg>
