<svg xmlns="http://www.w3.org/2000/svg" width="653.551" height="251.026" viewBox="0 0 612.704 235.337">
  <path d="M115.84 57.92C115.84 25.931 89.91 0 57.92 0 25.931 0 0 25.931 0 57.92c0 31.99 25.931 57.92 57.92 57.92 31.99 0 57.92-25.93 57.92-57.92z" fill="#6c71c4"/>
  <path d="M188.123 57.92c0-13.2-10.701-23.901-23.902-23.901-13.2 0-23.902 10.7-23.902 23.901s10.701 23.902 23.902 23.902c13.2 0 23.902-10.7 23.902-23.902z" fill="#268bd2"/>
  <path d="M253.537 57.92c0-10.189-8.26-18.448-18.449-18.448-10.19 0-18.449 8.26-18.449 18.448 0 10.19 8.26 18.45 18.449 18.45 10.19 0 18.449-8.26 18.449-18.45z" fill="#657b83"/>
  <path d="M229.773 235.337h10.63v-106.3h-10.63v106.3z" fill="#073642"/>
  <path d="M329.857 57.92c0-13.2-10.701-23.901-23.902-23.901-13.2 0-23.902 10.7-23.902 23.901s10.701 23.902 23.902 23.902c13.2 0 23.902-10.7 23.902-23.902z" fill="#268bd2"/>
  <path d="M395.27 57.92c0-10.189-8.259-18.448-18.448-18.448-10.19 0-18.449 8.26-18.449 18.448 0 10.19 8.26 18.45 18.45 18.45 10.188 0 18.448-8.26 18.448-18.45z" fill="#657b83"/>
  <path d="M366.192 235.337h21.26v-106.3h-21.26v106.3z" fill="#073642"/>
  <path d="M471.59 57.92c0-13.2-10.7-23.901-23.9-23.901-13.202 0-23.903 10.7-23.903 23.901s10.701 23.902 23.902 23.902c13.2 0 23.902-10.7 23.902-23.902z" fill="#268bd2"/>
  <path d="M537.005 57.92c0-10.189-8.26-18.448-18.449-18.448-10.189 0-18.449 8.26-18.449 18.448 0 10.19 8.26 18.45 18.45 18.45 10.188 0 18.448-8.26 18.448-18.45z" fill="#657b83"/>
  <path d="M502.611 235.337h31.89v-106.3h-31.89v106.3z" fill="#073642"/>
  <path d="M591.195 57.92a1.772 1.772 0 1 0-3.544 0 1.772 1.772 0 0 0 3.544 0zm10.63 0a1.772 1.772 0 1 0-3.543 0 1.772 1.772 0 0 0 3.543 0zm10.63 0a1.772 1.772 0 1 0-3.543 0 1.772 1.772 0 0 0 3.543 0z" fill="#657b83" stroke="#657b83" stroke-width=".499" stroke-miterlimit="10"/>
  <path d="M116.09 57.92h15.462" fill="none" stroke="#657b83" stroke-width="1.993" stroke-miterlimit="10"/>
  <path d="M140.07 57.92c-2.524-.473-6.625-1.892-9.464-3.549v7.099c2.839-1.657 6.94-3.076 9.464-3.55" fill="#657b83"/>
  <path d="M188.372 57.92h19.5" fill="none" stroke="#657b83" stroke-width="1.993" stroke-miterlimit="10"/>
  <path d="M216.39 57.92c-2.524-.473-6.625-1.892-9.464-3.549v7.099c2.839-1.657 6.94-3.076 9.464-3.55" fill="#657b83"/>
  <path d="M253.786 57.92h19.5" fill="none" stroke="#657b83" stroke-width="1.993" stroke-miterlimit="10"/>
  <path d="M281.804 57.92c-2.524-.473-6.625-1.892-9.464-3.549v7.099c2.839-1.657 6.94-3.076 9.464-3.55" fill="#657b83"/>
  <path d="M235.088 76.618v43.651" fill="none" stroke="#657b83" stroke-width="1.993" stroke-miterlimit="10"/>
  <path d="M235.088 128.787c.473-2.523 1.893-6.625 3.55-9.464h-7.1c1.657 2.84 3.077 6.94 3.55 9.464" fill="#657b83"/>
  <path d="M330.106 57.92h19.5" fill="none" stroke="#657b83" stroke-width="1.993" stroke-miterlimit="10"/>
  <path d="M358.124 57.92c-2.524-.473-6.625-1.892-9.464-3.549v7.099c2.839-1.657 6.94-3.076 9.464-3.55" fill="#657b83"/>
  <path d="M395.52 57.92h19.5" fill="none" stroke="#657b83" stroke-width="1.993" stroke-miterlimit="10"/>
  <path d="M423.538 57.92c-2.524-.473-6.625-1.892-9.464-3.549v7.099c2.84-1.657 6.94-3.076 9.464-3.55" fill="#657b83"/>
  <path d="M376.822 76.618v43.651" fill="none" stroke="#657b83" stroke-width="1.993" stroke-miterlimit="10"/>
  <path d="M376.822 128.787c.473-2.523 1.893-6.625 3.55-9.464h-7.1c1.657 2.84 3.077 6.94 3.55 9.464" fill="#657b83"/>
  <path d="M537.254 57.92h25.934" fill="none" stroke="#657b83" stroke-width="1.993" stroke-miterlimit="10"/>
  <path d="M571.706 57.92c-2.524-.473-6.625-1.892-9.464-3.549v7.099c2.84-1.657 6.94-3.076 9.464-3.55" fill="#657b83"/>
  <path d="M471.84 57.92h19.5" fill="none" stroke="#657b83" stroke-width="1.993" stroke-miterlimit="10"/>
  <path d="M499.858 57.92c-2.524-.473-6.625-1.892-9.464-3.549v7.099c2.839-1.657 6.94-3.076 9.464-3.55" fill="#657b83"/>
  <path d="M518.556 76.618v43.651" fill="none" stroke="#657b83" stroke-width="1.993" stroke-miterlimit="10"/>
  <path d="M518.556 128.787c.473-2.523 1.893-6.625 3.55-9.464h-7.1c1.657 2.84 3.077 6.94 3.55 9.464" fill="#657b83"/>
</svg>
