<svg xmlns="http://www.w3.org/2000/svg" width="469.759" height="349.373" viewBox="0 0 440.399 327.537">
  <path d="M327.537 163.768C327.537 73.32 254.217 0 163.768 0 73.32 0 0 73.32 0 163.768c0 90.448 73.32 163.769 163.768 163.769 90.448 0 163.769-73.32 163.769-163.769z" fill="#dc322f"/>
  <path d="M243.553 117.705c-25.44-44.063-81.785-59.161-125.849-33.721-44.063 25.44-59.16 81.785-33.72 125.848 22.35 38.712 69.29 55.796 103.28 43.424" fill="none" stroke="#fdf6e3" stroke-width="1.993" stroke-miterlimit="10"/>
  <path d="M195.278 250.339c-2.537.419-6.882.488-10.12-.098l2.43 6.679c2.105-2.531 5.477-5.272 7.69-6.581" fill="#fdf6e3"/>
  <path d="M255.828 110.618c-29.354-50.842-94.368-68.262-145.21-38.909-50.842 29.354-68.262 94.368-38.909 145.21 18.986 32.884 54.086 53.15 92.06 53.15 24.988 0 49.187-8.81 61.774-19.37" fill="none" stroke="#fdf6e3" stroke-width="1.993" stroke-miterlimit="10"/>
  <path d="M232.098 245.199c-2.248 1.265-6.32 2.82-9.575 3.38l4.583 5.462c1.116-3.108 3.355-6.849 4.992-8.842" fill="#fdf6e3"/>
  <path d="M268.102 103.532c-33.267-57.621-106.95-77.365-164.57-44.097-57.621 33.267-77.365 106.95-44.097 164.57 33.267 57.621 106.95 77.364 164.57 44.097 18.31-10.57 33.525-25.787 39.823-36.696" fill="none" stroke="#fdf6e3" stroke-width="1.993" stroke-miterlimit="10"/>
  <path d="M268.1 224.005c-1.677 1.956-4.967 4.807-7.83 6.443l6.166 3.56c-.014-3.297.81-7.573 1.664-10.003" fill="#fdf6e3"/>
  <path d="M280.376 96.445c-37.18-64.4-119.532-86.466-183.932-49.285-64.4 37.182-86.466 119.532-49.284 183.932 37.18 64.4 119.532 86.466 183.932 49.285 34.463-19.896 58.368-54.04 63.796-84.832" fill="none" stroke="#fdf6e3" stroke-width="1.993" stroke-miterlimit="10"/>
  <path d="M296.369 187.147c-.905 2.406-3.018 6.203-5.144 8.714l6.998 1.234c-1.14-3.087-1.826-7.377-1.854-9.948" fill="#fdf6e3"/>
  <path d="M292.651 89.358C251.556 18.18 160.537-6.209 89.358 34.886 18.18 75.98-6.209 167 34.886 238.179 75.98 309.358 167 333.747 238.179 292.652c54.172-31.277 83.007-93.12 73.629-146.325" fill="none" stroke="#fdf6e3" stroke-width="1.993" stroke-miterlimit="10"/>
  <path d="M310.327 137.929c-.028 2.57-.714 6.86-1.854 9.948l6.998-1.234c-2.126-2.511-4.239-6.308-5.144-8.714" fill="#fdf6e3"/>
  <path d="M376.619 216.919h63.78v-106.3h-63.78v106.3z" fill="#073642"/>
  <path d="M327.786 163.768h40.065" fill="none" stroke="#657b83" stroke-width="1.993" stroke-miterlimit="10"/>
  <path d="M376.37 163.768c-2.524-.473-6.626-1.892-9.465-3.549v7.099c2.84-1.657 6.94-3.076 9.465-3.55" fill="#657b83"/>
</svg>
