<svg xmlns="http://www.w3.org/2000/svg" width="804.251" height="326.135" viewBox="0 0 753.986 305.751">
  <path d="M256.67 128.335C256.67 57.457 199.213 0 128.335 0 57.457 0 0 57.457 0 128.335 0 199.213 57.457 256.67 128.335 256.67c70.878 0 128.335-57.457 128.335-128.335z" fill="#dc322f"/>
  <path d="M220.394 75.185c-29.354-50.843-94.367-68.263-145.21-38.91-50.842 29.354-68.262 94.368-38.908 145.21 29.353 50.842 94.367 68.263 145.209 38.909 16.155-9.327 29.582-22.754 34.637-31.509" fill="none" stroke="#fdf6e3" stroke-width="1.993" stroke-miterlimit="10"/>
  <path d="M220.394 181.485c-1.677 1.955-4.968 4.806-7.83 6.442l6.166 3.56c-.015-3.297.81-7.572 1.664-10.002" fill="#fdf6e3"/>
  <path d="M322.692 128.335c0-9.494-7.696-17.19-17.19-17.19-9.493 0-17.189 7.696-17.189 17.19 0 9.493 7.696 17.189 17.19 17.189 9.493 0 17.189-7.696 17.189-17.19z" fill="#657b83"/>
  <path d="M300.187 305.751h10.63v-106.3h-10.63v106.3z" fill="#073642"/>
  <path d="M611.005 128.335C611.005 57.457 553.548 0 482.67 0c-70.878 0-128.335 57.457-128.335 128.335 0 70.878 57.457 128.335 128.335 128.335 70.878 0 128.335-57.457 128.335-128.335z" fill="#dc322f"/>
  <path d="M574.73 75.185c-29.355-50.843-94.368-68.263-145.21-38.91-50.842 29.354-68.263 94.368-38.91 145.21 29.354 50.842 94.368 68.263 145.21 38.909 16.155-9.327 29.583-22.754 34.637-31.509" fill="none" stroke="#fdf6e3" stroke-width="1.993" stroke-miterlimit="10"/>
  <path d="M574.73 181.485c-1.678 1.955-4.968 4.806-7.831 6.442l6.166 3.56c-.014-3.297.81-7.572 1.664-10.002" fill="#fdf6e3"/>
  <path d="M677.027 128.335c0-9.494-7.696-17.19-17.19-17.19-9.493 0-17.189 7.696-17.189 17.19 0 9.493 7.696 17.189 17.19 17.189 9.493 0 17.189-7.696 17.189-17.19z" fill="#657b83"/>
  <path d="M649.207 305.751h21.26v-106.3h-21.26v106.3z" fill="#073642"/>
  <path d="M732.476 128.335a1.772 1.772 0 1 0-3.543 0 1.772 1.772 0 0 0 3.543 0zm10.63 0a1.772 1.772 0 1 0-3.543 0 1.772 1.772 0 0 0 3.543 0zm10.631 0a1.772 1.772 0 1 0-3.544 0 1.772 1.772 0 0 0 3.544 0z" fill="#657b83" stroke="#657b83" stroke-width=".499" stroke-miterlimit="10"/>
  <path d="M256.919 128.335h22.627" fill="none" stroke="#657b83" stroke-width="1.993" stroke-miterlimit="10"/>
  <path d="M288.064 128.335c-2.524-.473-6.625-1.893-9.464-3.55v7.099c2.839-1.656 6.94-3.076 9.464-3.55" fill="#657b83"/>
  <path d="M322.94 128.335h22.628" fill="none" stroke="#657b83" stroke-width="1.993" stroke-miterlimit="10"/>
  <path d="M354.086 128.335c-2.524-.473-6.625-1.893-9.465-3.55v7.099c2.84-1.656 6.941-3.076 9.465-3.55" fill="#657b83"/>
  <path d="M305.502 145.773v44.91" fill="none" stroke="#657b83" stroke-width="1.993" stroke-miterlimit="10"/>
  <path d="M305.502 199.202c.474-2.524 1.893-6.625 3.55-9.465h-7.099c1.656 2.84 3.076 6.94 3.55 9.465" fill="#657b83"/>
  <path d="M611.254 128.335h22.627" fill="none" stroke="#657b83" stroke-width="1.993" stroke-miterlimit="10"/>
  <path d="M642.4 128.335c-2.525-.473-6.626-1.893-9.465-3.55v7.099c2.839-1.656 6.94-3.076 9.464-3.55" fill="#657b83"/>
  <path d="M659.837 145.773v44.91" fill="none" stroke="#657b83" stroke-width="1.993" stroke-miterlimit="10"/>
  <path d="M659.837 199.202c.474-2.524 1.893-6.625 3.55-9.465h-7.099c1.657 2.84 3.076 6.94 3.55 9.465" fill="#657b83"/>
  <path d="M677.276 128.335h27.194" fill="none" stroke="#657b83" stroke-width="1.993" stroke-miterlimit="10"/>
  <path d="M712.988 128.335c-2.524-.473-6.625-1.893-9.465-3.55v7.099c2.84-1.656 6.94-3.076 9.465-3.55" fill="#657b83"/>
</svg>
