<svg xmlns="http://www.w3.org/2000/svg" width="529.143" height="408.423" viewBox="0 0 496.072 382.896">
  <path d="M127.415 114.013v-17.87h119.132v17.87H127.415z" fill="#859900"/>
  <path d="M127.415 84.23V66.36h119.132v17.87H127.415z" fill="#2aa198"/>
  <path d="M127.415 54.447v-17.87h119.132v17.87H127.415z" fill="#268bd2"/>
  <path d="M127.415 24.664V6.794h119.132v17.87H127.415z" fill="#6c71c4"/>
  <path d="M133.371 119.97h-11.913V.836h11.913M240.59 119.97h11.913V.836H240.59" fill="none" stroke="#657b83" stroke-width="1.675" stroke-miterlimit="10"/>
  <path d="M276.33 114.013V6.793h17.87v107.22h-17.87z" fill="#657b83"/>
  <path d="M282.286 119.97h-11.913V.836h11.913m5.957 119.134h11.913V.836h-11.913" fill="none" stroke="#657b83" stroke-width="1.675" stroke-miterlimit="10"/>
  <path d="M350.787 114.013v-17.87h17.87v17.87h-17.87z" fill="#859900"/>
  <path d="M350.787 84.23V66.36h17.87v17.87h-17.87z" fill="#2aa198"/>
  <path d="M350.787 54.447v-17.87h17.87v17.87h-17.87z" fill="#268bd2"/>
  <path d="M350.787 24.664V6.794h17.87v17.87h-17.87z" fill="#6c71c4"/>
  <path d="M356.743 119.97H344.83V.836h11.913M362.7 119.97h11.913V.836H362.7m-50.631 62.546h17.87m-17.87-5.957h17.87" fill="none" stroke="#657b83" stroke-width="1.675" stroke-miterlimit="10"/>
  <path d="M.837 248.036v-29.783c0-8.225 6.667-14.892 14.892-14.892h166.784c8.225 0 14.892 6.667 14.892 14.892v29.783c0 8.224-6.667 14.891-14.892 14.891H15.73c-8.225 0-14.892-6.667-14.892-14.891z" fill="none" stroke="#2aa198" stroke-width="1.675" stroke-miterlimit="10"/>
  <path d="M15.729 242.08v-17.87H134.86v17.87H15.729zm148.914 0v-17.87h17.87v17.87h-17.87z" fill="#2aa198"/>
  <path d="M21.685 248.036H9.772v-29.783h11.913m107.219 29.783h11.913v-29.783h-11.913m41.696 29.783h-11.913v-29.783H170.6m5.956 29.783h11.914v-29.783h-11.914" fill="none" stroke="#657b83" stroke-width="1.675" stroke-miterlimit="10"/>
  <path d="M298.667 248.036v-29.783c0-8.225 6.667-14.892 14.891-14.892h166.785c8.224 0 14.891 6.667 14.891 14.892v29.783c0 8.224-6.667 14.891-14.891 14.891H313.558c-8.224 0-14.891-6.667-14.891-14.891z" fill="none" stroke="#268bd2" stroke-width="1.675" stroke-miterlimit="10"/>
  <path d="M313.558 242.08v-17.87H432.69v17.87H313.558zm148.915 0v-17.87h17.87v17.87h-17.87z" fill="#268bd2"/>
  <path d="M319.515 248.036h-11.913v-29.783h11.913m107.218 29.783h11.913v-29.783h-11.913m41.697 29.783h-11.914v-29.783h11.913m5.957 29.783h11.913v-29.783h-11.913" fill="none" stroke="#657b83" stroke-width="1.675" stroke-miterlimit="10"/>
  <path d="M.837 367.168v-29.783c0-8.225 6.667-14.892 14.892-14.892h166.784c8.225 0 14.892 6.667 14.892 14.892v29.783c0 8.224-6.667 14.891-14.892 14.891H15.73c-8.225 0-14.892-6.667-14.892-14.891z" fill="none" stroke="#6c71c4" stroke-width="1.675" stroke-miterlimit="10"/>
  <path d="M15.729 361.211v-17.87H134.86v17.87H15.729zm148.914 0v-17.87h17.87v17.87h-17.87z" fill="#6c71c4"/>
  <path d="M21.685 367.168H9.772v-29.783h11.913m107.219 29.783h11.913v-29.783h-11.913m41.696 29.783h-11.913v-29.783H170.6m5.956 29.783h11.914v-29.783h-11.914" fill="none" stroke="#657b83" stroke-width="1.675" stroke-miterlimit="10"/>
  <path d="M298.667 367.168v-29.783c0-8.225 6.667-14.892 14.891-14.892h166.785c8.224 0 14.891 6.667 14.891 14.892v29.783c0 8.224-6.667 14.891-14.891 14.891H313.558c-8.224 0-14.891-6.667-14.891-14.891z" fill="none" stroke="#859900" stroke-width="1.675" stroke-miterlimit="10"/>
  <path d="M313.558 361.211v-17.87H432.69v17.87H313.558zm148.915 0v-17.87h17.87v17.87h-17.87z" fill="#859900"/>
  <path d="M319.515 367.168h-11.913v-29.783h11.913m107.218 29.783h11.913v-29.783h-11.913m41.697 29.783h-11.914v-29.783h11.913m5.957 29.783h11.913v-29.783h-11.913M204.565 233.144h86.942" fill="none" stroke="#657b83" stroke-width="1.675" stroke-miterlimit="10"/>
  <path d="M197.405 233.144c2.121.398 5.569 1.591 7.955 2.984v-5.967c-2.386 1.392-5.834 2.586-7.955 2.983m101.262 0c-2.122-.397-5.569-1.59-7.956-2.983v5.967c2.387-1.393 5.834-2.586 7.956-2.984" fill="#657b83"/>
  <path d="M204.565 352.276h86.942" fill="none" stroke="#657b83" stroke-width="1.675" stroke-miterlimit="10"/>
  <path d="M197.405 352.276c2.121.398 5.569 1.591 7.955 2.983v-5.966c-2.386 1.392-5.834 2.585-7.955 2.983m101.262 0c-2.122-.398-5.569-1.591-7.956-2.983v5.966c2.387-1.392 5.834-2.585 7.956-2.983" fill="#657b83"/>
  <path d="M396.95 315.333v-45.246" fill="none" stroke="#657b83" stroke-width="1.675" stroke-miterlimit="10"/>
  <path d="M396.95 322.493c.398-2.121 1.591-5.569 2.984-7.955h-5.967c1.392 2.386 2.586 5.834 2.983 7.955m0-59.566c-.397 2.122-1.59 5.569-2.983 7.955h5.967c-1.393-2.386-2.586-5.833-2.984-7.955" fill="#657b83"/>
  <path d="M198.697 321.644l96.295-60.846" fill="none" stroke="#657b83" stroke-width="1.675" stroke-miterlimit="10"/>
  <path d="M192.64 325.472c2.007-.798 5.562-1.632 8.325-1.73l-3.19-5.048c-1.275 2.454-3.553 5.307-5.135 6.778m108.41-68.502c-2.008.798-5.563 1.632-8.326 1.73l3.19 5.048c1.274-2.454 3.553-5.307 5.135-6.777" fill="#657b83"/>
  <path d="M99.121 315.333v-45.246" fill="none" stroke="#657b83" stroke-width="1.675" stroke-miterlimit="10"/>
  <path d="M99.121 322.493c.398-2.121 1.591-5.569 2.983-7.955h-5.966c1.392 2.386 2.585 5.834 2.983 7.955m0-59.566c-.398 2.122-1.59 5.569-2.983 7.955h5.966c-1.392-2.386-2.585-5.833-2.983-7.955" fill="#657b83"/>
</svg>
